#!OML:ASF F:\VICON\USERDATA\INSTALL\rory3\rory3.ASF
:FULLY-SPECIFIED
:DEGREES
226
root 0.01054780604229999 17.770400013838206 55.303662049342705 -2.5345298981047715 -4.061177471778745 -2.219027401544044
lfemur -15.293826148809394 0.09289209250846175 -22.217444009781673
ltibia 20.52262580349912
lfoot 5.962490496221272 -3.701308109938278
ltoes -2.0700042788890123
rfemur -18.635105539658806 2.5715871666587042 24.061564775831492
rtibia 35.947038282329096
rfoot -8.08376958909016 -8.737568299518626
rtoes 4.635693126523587
lowerback 11.405740723308073 0.5448057997482278 1.7930218061804397
upperback 0.5821385874178966 0.9727245655094938 1.2067523954754473
thorax -5.61667675780836 0.3941359368139584 -0.1302983292213412
lowerneck -16.16395062933909 -2.763237331804483 -3.5505897065856518
upperneck 21.928993329140024 -3.258095039013259 1.2318800787655007
head 9.479918706405996 -1.6441373739541265 0.8927396250840283
lclavicle 1.4559788411020649e-16 2.3591451403597056e-16
lhumerus -34.09538671570346 6.102061272851229 79.19439800333149
lradius 25.2469542500254
lwrist 5.137177632722023
lhand -28.77871935004683 20.121587768477003
lfingers 7.12502
lthumb -2.257656001841521 50.32619839012029
rclavicle 1.464061830624355e-16 2.3656452484919224e-16
rhumerus -25.90558280934846 -17.970427249662063 -75.80102513555366
rradius 19.271735226750184
rwrist 8.938668430814033
rhand -18.06800340948923 23.288277668511057
rfingers 7.12502
rthumb 8.06955605374325 -6.842538157026079
227
root -0.007913739824762234 17.788605619157902 55.260213926771506 -2.5347243692926487 -4.000296631599076 -2.251508429766002
lfemur -13.999320617636773 0.23628708829835587 -22.340897098177464
ltibia 19.9772489793533
lfoot 6.890824372986411 -4.699982641378886
ltoes -1.5451463962839225
rfemur -18.815232390460846 2.95509865692951 24.166000272116104
rtibia 34.55706814933595
rfoot -8.234157877858479 -8.259022822759379
rtoes 4.942588975137685
lowerback 11.425653732809998 0.4837422937406206 1.823910580224818
upperback 0.5452203855772257 0.8868733441745315 1.2239742922875094
thorax -5.587633833110377 0.35437141226045654 -0.058974265347755406
lowerneck -16.12291936540543 -2.7564869854234026 -3.603781635689496
upperneck 21.89713861240333 -3.2334673846832036 1.2249333200920418
head 9.468079332564972 -1.6360573220666983 0.9012784683198016
lclavicle 1.4582254782888243e-16 2.360863580785541e-16
lhumerus -33.879839577214845 6.174642868599307 79.27922700760577
lradius 25.287504817805456
lwrist 5.607735326588461
lhand -28.89480683208141 19.815088366969434
lfingers 7.12502
lthumb -2.3306775842210756 50.10413967016456
rclavicle 1.4636380583708277e-16 2.3653193235663515e-16
rhumerus -25.745171692259746 -17.380783380118192 -75.9458742957354
rradius 19.417682131724185
rwrist 8.877137106031178
rhand -17.996172512277948 23.275360789916885
rfingers 7.12502
rthumb 8.058102976774466 -6.754742279795764
228
root -0.030332577253331883 17.78823888842559 55.346481880996976 -2.469669229056016 -3.8760347919185247 -2.0754742595613025
lfemur -12.717796492593095 0.22315666733369754 -22.589852195699038
ltibia 18.977198279568867
lfoot 7.416534669019618 -5.67550535739406
ltoes -1.4238141830426148
rfemur -18.90959703369679 3.2274677055281558 24.127374693292957
rtibia 33.416202657314955
rfoot -8.335379240420302 -7.728172798364463
rtoes 5.146542290471345
lowerback 11.360836133344902 0.3981167367317463 1.7283556633073642
upperback 0.5254410417116577 0.7808691950016948 1.2046151288592153
thorax -5.5159798777752895 0.30197652057345714 0.03587980076124486
lowerneck -16.09741628262636 -2.745896091091932 -3.6355156961705917
upperneck 21.869889731320296 -3.222041484695761 1.2366182252571267
head 9.462475100432265 -1.6312879847051172 0.9077335447994666
lclavicle 1.4569244402267905e-16 2.359857911820888e-16
lhumerus -33.596466548855304 6.079052821544956 79.3696657102692
lradius 25.36369877541533
lwrist 6.066536674750143
lhand -29.055098510065694 19.349300355675894
lfingers 7.12502
lthumb -2.42228076725171 49.82282202680879
rclavicle 1.4661625944075872e-16 2.3672605685939764e-16
rhumerus -25.54939212190726 -16.926424548233143 -76.15827185426569
rradius 19.538748843993556
rwrist 9.00684495429046
rhand -17.93711196617493 23.256693499270675
rfingers 7.12502
rthumb 8.012905097304964 -6.654066503165094
229
root -0.04976972263923457 17.794078232761613 55.35549016807466 -2.4794886939064003 -3.576324644059607 -2.1674523308172384
lfemur -11.374388910602853 0.0956377705640985 -22.652978025107696
ltibia 18.13139808766305
lfoot 7.741719844499529 -6.626741092793577
ltoes -1.5970102847220706
rfemur -18.80272844524937 3.450358526766554 24.29508437241308
rtibia 32.24861297847464
rfoot -8.247633175210447 -7.355925009616323
rtoes 4.416796541888146
lowerback 11.26501526207053 0.2678994864912779 1.884991398893351
upperback 0.5042337183080662 0.6357994308342475 1.2352987899506473
thorax -5.3970764223717005 0.22420167747059017 0.045126939766276575
lowerneck -16.09389752813185 -2.7354160605338964 -3.6774467540987845
upperneck 21.892761229877124 -3.2012851316441213 1.2233736465476668
head 9.473277433533635 -1.6254537793942092 0.907532081084692
lclavicle 1.4553664089489967e-16 2.3586706453957193e-16
lhumerus -33.28722886602119 5.833383080312843 79.47589362382821
lradius 25.604873096705347
lwrist 6.167988194299332
lhand -29.274941179279324 19.338930606577282
lfingers 7.12502
lthumb -2.60056748937847 49.77125030767042
rclavicle 1.459840003178046e-16 2.3623989707038313e-16
rhumerus -25.3647638579447 -16.648837006820386 -76.38526733092802
rradius 19.54650373080345
rwrist 9.22117497210485
rhand -17.89710534189485 23.28928659017813
rfingers 7.12502
rthumb 7.994806881128909 -6.501689274699084
230
root -0.06539519156848883 17.802847315198726 55.31099791665444 -2.6148886614456144 -3.306750373485067 -2.209299627245733
lfemur -10.15612640006494 -0.08574807850177435 -22.702100627214133
ltibia 17.734962517858726
lfoot 7.87701060611064 -7.782121680495011
ltoes -1.713236372687646
rfemur -18.35384360770245 3.7760755334993794 24.3943267605213
rtibia 30.97903489507251
rfoot -7.9963834945253485 -6.979282923235187
rtoes 4.30551539355274
lowerback 11.226039932469172 0.16538630620451583 2.00210458672413
upperback 0.45984811676273424 0.5419584903668633 1.2743368636606152
thorax -5.346088608943168 0.1728869681659631 0.06428918729332045
lowerneck -16.0841614936757 -2.727779207008203 -3.7148291932464357
upperneck 21.97276493879246 -3.1783789759709413 1.140665557807712
head 9.509778824944835 -1.6195471149915313 0.8819965127492497
lclavicle 1.4578520735121058e-16 2.360583717686243e-16
lhumerus -33.02124879002319 5.547612941117725 79.58813690606401
lradius 25.884888334459816
lwrist 6.3307943972458025
lhand -29.35922030339743 19.328680760568375
lfingers 7.12502
lthumb -2.661081845304378 49.771543430388554
rclavicle 1.4641539957390485e-16 2.365716386941537e-16
rhumerus -25.341033228818606 -16.690341494026676 -76.50816758476924
rradius 19.534891625346454
rwrist 9.589901074887594
rhand -17.88849074803625 23.220632161774834
rfingers 7.12502
rthumb 7.929538724922769 -6.566102301683641
231
root -0.08240386468209737 17.806678317104566 55.408540515125715 -2.5990094911318766 -3.1793173217431816 -2.6300588064409
lfemur -9.27745573413255 -0.2960943693893734 -22.317195581525194
ltibia 17.677054435648813
lfoot 8.095833371709752 -8.482402726222228
ltoes -1.6687048515285343
rfemur -17.751719270470787 4.231307237437724 24.85892727019762
rtibia 29.984915558736365
rfoot -7.615532075315331 -6.476437656529689
rtoes 4.099209590923166
lowerback 11.118021321807243 0.13825400922892703 2.317364779686448
upperback 0.41087471264270675 0.5714940936134464 1.352669170614062
thorax -5.262582324168755 0.1806039682579326 0.0024250427827183785
lowerneck -16.06619917621249 -2.7192882338623345 -3.7439684452283934
upperneck 22.022813946152404 -3.156729050244636 1.0602318912521471
head 9.52444118155115 -1.6124635400366274 0.8642274681972064
lclavicle 1.4586109597150054e-16 2.3611497551744606e-16
lhumerus -32.880242060392426 5.416821692017148 79.59855946310137
lradius 26.160842185276174
lwrist 6.423248248251225
lhand -29.421782033831725 19.215833044449035
lfingers 7.12502
lthumb -2.6744417781899754 49.72022724928703
rclavicle 1.4655216188343725e-16 2.3667682620040807e-16
rhumerus -25.391899781426485 -16.947338159147797 -76.52856390539392
rradius 19.43562269322341
rwrist 9.793082944563828
rhand -17.895977148835698 23.191205420921808
rfingers 7.12502
rthumb 7.868468038603913 -6.727640511232657
232
root -0.09130749511188146 17.815126881113464 55.453971733321886 -2.573063558630891 -2.9071335025600256 -2.7712269216345646
lfemur -8.509412400710334 -0.5939081832763935 -22.188296660339063
ltibia 18.10181627843906
lfoot 8.392561295329138 -9.225008199438506
ltoes -1.003374410554032
rfemur -16.996956328906364 4.446404405478316 25.085372065415484
rtibia 29.328722197233834
rfoot -7.038938825952559 -5.924814684962085
rtoes 4.185879074111476
lowerback 10.994736039061145 0.07012726996364788 2.4995718623748955
upperback 0.34554539313582966 0.5213737843393691 1.4046698949223366
thorax -5.1775832718589525 0.1587781108378378 -0.06677773898918726
lowerneck -16.05868762675011 -2.7084300920910787 -3.755791581717971
upperneck 22.08658169576138 -3.1335396550817447 0.9776680869672227
head 9.537779315843121 -1.6062923591918281 0.8462941270481288
lclavicle 1.458730376122777e-16 2.361247567668462e-16
lhumerus -32.817176727536015 5.238053979932944 79.58715361228381
lradius 26.520704673845913
lwrist 6.692861126466197
lhand -29.612770962627717 19.144431318555124
lfingers 7.12502
lthumb -2.799604828519971 49.59335937787316
rclavicle 1.4631393620752707e-16 2.3649362719798377e-16
rhumerus -25.535951760659383 -17.201356729334663 -76.56333358376533
rradius 19.352232354169292
rwrist 9.893333147005038
rhand -17.88149997259597 23.15165977441263
rfingers 7.12502
rthumb 7.8198312674879675 -6.832085548886555
233
root -0.09976728515402228 17.82193043549635 55.42021114552362 -2.5591861300356635 -2.71384642002495 -2.889082198944487
lfemur -7.87767586260293 -0.7948494038692171 -21.969558057094964
ltibia 18.88220539978019
lfoot 8.629209119958965 -9.967300268528081
ltoes -0.629831550670275
rfemur -15.924450332102431 4.785863298808384 25.312170872464336
rtibia 28.67473228161447
rfoot -6.525364482371758 -5.333273663150779
rtoes 4.9836713832622035
lowerback 10.901093536450173 0.05557913066874448 2.667667653560069
upperback 0.2912620322713534 0.5465470242456243 1.4580546127982044
thorax -5.126883703741175 0.16094333125731283 -0.1672571591720028
lowerneck -16.0511481533702 -2.70028730829394 -3.7553667904476953
upperneck 22.134145125676884 -3.1127480798845846 0.8931465977486991
head 9.55188872961572 -1.6005775776639541 0.8292573455002076
lclavicle 1.4599779089410627e-16 2.362213897481072e-16
lhumerus -32.795426106836324 4.864534547904109 79.6312031980335
lradius 26.832866779573052
lwrist 6.8916890690037516
lhand -29.721128654336866 18.857175078013473
lfingers 7.12502
lthumb -2.835916007029114 49.37724077143427
rclavicle 1.4648528038944086e-16 2.366253841034351e-16
rhumerus -25.731297961381543 -17.595186053933176 -76.57158653847583
rradius 19.144695578459842
rwrist 10.20113282242487
rhand -17.889803873796737 23.09874938001741
rfingers 7.12502
rthumb 7.758096395267178 -6.825923389379322
